<svg width="199" height="50" viewBox="0 0 199 50" fill="none" xmlns="http://www.w3.org/2000/svg">
<path d="M37.6563 36.4583L34.6875 39.4792C34.4792 39.6875 34.3751 39.9306 34.3751 40.2083C34.3751 40.4861 34.4792 40.7292 34.6875 40.9375C34.8959 41.1458 35.1389 41.25 35.4167 41.25C35.6945 41.25 35.9376 41.1458 36.1459 40.9375L40.2084 36.875C40.625 36.4583 40.8334 35.9722 40.8334 35.4167C40.8334 34.8611 40.625 34.375 40.2084 33.9583L36.1459 29.8958C35.9376 29.6875 35.6945 29.5833 35.4167 29.5833C35.1389 29.5833 34.8959 29.6875 34.6875 29.8958C34.4792 30.1042 34.3751 30.3472 34.3751 30.625C34.3751 30.9028 34.4792 31.1458 34.6875 31.3542L37.7084 34.375H30.2084C29.9306 34.375 29.6876 34.4792 29.4792 34.6875C29.2709 34.8958 29.1667 35.1389 29.1667 35.4167C29.1667 35.6945 29.2709 35.9375 29.4792 36.1458C29.6876 36.3542 29.9306 36.4583 30.2084 36.4583H37.6563ZM35.4167 45.8333C32.5348 45.8333 30.0785 44.8174 28.048 42.7854C26.0174 40.7535 25.0014 38.2972 25.0001 35.4167C25.0001 32.5347 26.016 30.0785 28.048 28.0479C30.0799 26.0174 32.5362 25.0014 35.4167 25C38.2987 25 40.7556 26.016 42.7876 28.0479C44.8195 30.0799 45.8348 32.5361 45.8334 35.4167C45.8334 38.2986 44.8174 40.7556 42.7855 42.7875C40.7535 44.8195 38.2973 45.8347 35.4167 45.8333ZM25.2084 45.8333H21.0938C20.573 45.8333 20.1216 45.6597 19.7396 45.3125C19.3577 44.9653 19.132 44.5313 19.0625 44.0104L18.4376 39.1667C17.9862 38.9931 17.5612 38.7847 17.1626 38.5417C16.7639 38.2986 16.373 38.0382 15.9896 37.7604L11.4584 39.6354C10.9723 39.8438 10.4862 39.8701 10.0001 39.7146C9.51394 39.559 9.132 39.2549 8.85422 38.8021L5.00005 32.0833C4.72227 31.632 4.63547 31.1458 4.73964 30.625C4.8438 30.1042 5.10422 29.6875 5.52089 29.375L9.42713 26.4063C9.39241 26.1632 9.37505 25.9292 9.37505 25.7042V24.2979C9.37505 24.0715 9.39241 23.8368 9.42713 23.5938L5.52089 20.625C5.10422 20.3125 4.8438 19.8958 4.73964 19.375C4.63547 18.8542 4.72227 18.3681 5.00005 17.9167L8.85422 11.1979C9.132 10.7465 9.51394 10.4431 10.0001 10.2875C10.4862 10.132 10.9723 10.1576 11.4584 10.3646L15.9896 12.2396C16.3716 11.9618 16.7709 11.7014 17.1876 11.4583C17.6042 11.2153 18.0209 11.0069 18.4376 10.8333L19.0625 5.98959C19.132 5.46876 19.3577 5.03473 19.7396 4.68751C20.1216 4.34028 20.573 4.16667 21.0938 4.16667H28.9063C29.4271 4.16667 29.8785 4.34028 30.2605 4.68751C30.6424 5.03473 30.8681 5.46876 30.9376 5.98959L31.5625 10.8333C32.0139 11.0069 32.4396 11.2153 32.8396 11.4583C33.2396 11.7014 33.6299 11.9618 34.0105 12.2396L38.5417 10.3646C39.0278 10.1563 39.5139 10.1299 40.0001 10.2854C40.4862 10.441 40.8681 10.7451 41.1459 11.1979L45.0001 17.9167C45.2778 18.3681 45.3646 18.8542 45.2605 19.375C45.1563 19.8958 44.8959 20.3125 44.4792 20.625L42.0834 22.4479C41.3195 22.066 40.5382 21.7445 39.7396 21.4833C38.941 21.2222 38.0903 21.0403 37.1876 20.9375L40.4688 18.4375L38.4376 14.8958L33.2813 17.0833C32.5174 16.2847 31.6751 15.6167 30.7542 15.0792C29.8334 14.5417 28.8355 14.1333 27.7605 13.8542L27.0834 8.33334H22.9688L22.2396 13.8542C21.1632 14.132 20.1653 14.5403 19.2459 15.0792C18.3264 15.6181 17.4841 16.2688 16.7188 17.0313L11.5626 14.8958L9.5313 18.4375L14.0105 21.7708C13.8369 22.2917 13.7153 22.8125 13.6459 23.3333C13.5764 23.8542 13.5417 24.4097 13.5417 25C13.5417 25.5556 13.5764 26.0938 13.6459 26.6146C13.7153 27.1354 13.8369 27.6563 14.0105 28.1771L9.5313 31.5625L11.5626 35.1042L16.7188 32.9167C17.3091 33.507 17.9431 34.0368 18.6209 34.5063C19.2987 34.9757 20.0362 35.366 20.8334 35.6771C20.8681 37.6563 21.2764 39.5139 22.0584 41.25C22.8403 42.9861 23.8903 44.5139 25.2084 45.8333ZM21.4063 31.3021C21.6146 30.6076 21.8667 29.9389 22.1625 29.2958C22.4584 28.6528 22.7966 28.0368 23.1771 27.4479C22.7952 27.1701 22.5001 26.8139 22.2917 26.3792C22.0834 25.9445 21.9792 25.4847 21.9792 25C21.9792 24.132 22.2827 23.3945 22.8896 22.7875C23.4966 22.1806 24.2348 21.8764 25.1042 21.875C25.5903 21.875 26.0591 21.9882 26.5105 22.2146C26.9619 22.441 27.3264 22.7445 27.6042 23.125C28.1945 22.7431 28.8021 22.4042 29.4271 22.1083C30.0521 21.8125 30.7119 21.5785 31.4063 21.4063C30.7813 20.2951 29.9132 19.4007 28.8021 18.7229C27.691 18.0451 26.4584 17.707 25.1042 17.7083C23.0556 17.7083 21.3278 18.4201 19.9209 19.8438C18.5139 21.2674 17.8112 22.9861 17.8126 25C17.8126 26.3195 18.1341 27.5438 18.7771 28.6729C19.4202 29.8021 20.2966 30.6785 21.4063 31.3021Z" fill="white"/>
<path d="M82.5597 25.2727C82.5597 27.9574 82.0749 30.2775 81.1055 32.233C80.136 34.1884 78.8061 35.6965 77.1158 36.7571C75.4254 37.8177 73.4948 38.348 71.3239 38.348C69.1529 38.348 67.2223 37.8177 65.532 36.7571C63.8416 35.6965 62.5117 34.1884 61.5423 32.233C60.5728 30.2775 60.0881 27.9574 60.0881 25.2727C60.0881 22.5881 60.5728 20.268 61.5423 18.3125C62.5117 16.357 63.8416 14.849 65.532 13.7884C67.2223 12.7277 69.1529 12.1974 71.3239 12.1974C73.4948 12.1974 75.4254 12.7277 77.1158 13.7884C78.8061 14.849 80.136 16.357 81.1055 18.3125C82.0749 20.268 82.5597 22.5881 82.5597 25.2727ZM79.5767 25.2727C79.5767 23.0687 79.208 21.2085 78.4705 19.6921C77.7414 18.1758 76.7512 17.0282 75.5 16.2493C74.2571 15.4704 72.8651 15.081 71.3239 15.081C69.7827 15.081 68.3865 15.4704 67.1353 16.2493C65.8924 17.0282 64.9022 18.1758 64.1648 19.6921C63.4356 21.2085 63.071 23.0687 63.071 25.2727C63.071 27.4768 63.4356 29.337 64.1648 30.8533C64.9022 32.3697 65.8924 33.5173 67.1353 34.2962C68.3865 35.075 69.7827 35.4645 71.3239 35.4645C72.8651 35.4645 74.2571 35.075 75.5 34.2962C76.7512 33.5173 77.7414 32.3697 78.4705 30.8533C79.208 29.337 79.5767 27.4768 79.5767 25.2727ZM90.2781 26.5156V38H87.3448V18.9091H90.1786V21.892H90.4272C90.8746 20.9226 91.5541 20.1437 92.4656 19.5554C93.377 18.9588 94.5536 18.6605 95.9954 18.6605C97.288 18.6605 98.419 18.9257 99.3885 19.456C100.358 19.978 101.112 20.7734 101.651 21.8423C102.189 22.9029 102.458 24.2453 102.458 25.8693V38H99.5252V26.0682C99.5252 24.5684 99.1358 23.4001 98.3569 22.5632C97.578 21.718 96.5091 21.2955 95.1502 21.2955C94.2139 21.2955 93.377 21.4985 92.6396 21.9045C91.9104 22.3105 91.3345 22.9029 90.9119 23.6818C90.4893 24.4607 90.2781 25.4053 90.2781 26.5156ZM106.675 15.8516V12.5455H126.375V15.8516H118.433V38H114.605V15.8516H106.675ZM128.447 38V18.9091H132.039V21.9418H132.238C132.586 20.9143 133.199 20.1064 134.078 19.5181C134.964 18.9215 135.967 18.6232 137.086 18.6232C137.318 18.6232 137.591 18.6315 137.906 18.6481C138.229 18.6647 138.482 18.6854 138.664 18.7102V22.2649C138.515 22.2235 138.25 22.1779 137.869 22.1282C137.487 22.0702 137.106 22.0412 136.725 22.0412C135.847 22.0412 135.064 22.2276 134.376 22.6005C133.697 22.9651 133.158 23.4747 132.76 24.1293C132.363 24.7756 132.164 25.513 132.164 26.3416V38H128.447ZM147.265 38.4226C146.055 38.4226 144.961 38.1989 143.984 37.7514C143.006 37.2957 142.231 36.637 141.659 35.7752C141.096 34.9135 140.814 33.857 140.814 32.6058C140.814 31.5286 141.021 30.642 141.436 29.946C141.85 29.25 142.409 28.699 143.114 28.293C143.818 27.887 144.605 27.5804 145.475 27.3732C146.345 27.1661 147.232 27.0086 148.135 26.9009C149.278 26.7683 150.206 26.6606 150.919 26.5778C151.632 26.4866 152.15 26.3416 152.473 26.1428C152.796 25.9439 152.957 25.6207 152.957 25.1733V25.0863C152.957 24.0008 152.651 23.1598 152.038 22.5632C151.433 21.9666 150.53 21.6683 149.328 21.6683C148.077 21.6683 147.091 21.9459 146.37 22.5011C145.657 23.0479 145.164 23.657 144.891 24.3281L141.398 23.5327C141.813 22.3726 142.418 21.4363 143.213 20.7237C144.017 20.0028 144.941 19.4808 145.985 19.1577C147.029 18.8262 148.127 18.6605 149.278 18.6605C150.041 18.6605 150.849 18.7517 151.702 18.9339C152.564 19.108 153.368 19.4311 154.113 19.9034C154.867 20.3757 155.485 21.051 155.965 21.9293C156.446 22.7994 156.686 23.9304 156.686 25.3224V38H153.057V35.3899H152.908C152.667 35.8705 152.307 36.3428 151.826 36.8068C151.346 37.2708 150.728 37.6561 149.974 37.9627C149.22 38.2693 148.317 38.4226 147.265 38.4226ZM148.073 35.4396C149.1 35.4396 149.979 35.2366 150.708 34.8306C151.445 34.4246 152.004 33.8943 152.386 33.2397C152.775 32.5768 152.97 31.8684 152.97 31.1143V28.6534C152.837 28.786 152.58 28.9103 152.199 29.0263C151.826 29.134 151.4 29.2293 150.919 29.3121C150.438 29.3867 149.97 29.4571 149.515 29.5234C149.059 29.5814 148.678 29.6312 148.371 29.6726C147.65 29.7637 146.991 29.917 146.395 30.1325C145.807 30.3479 145.334 30.6586 144.978 31.0646C144.63 31.4624 144.456 31.9927 144.456 32.6555C144.456 33.5753 144.796 34.2713 145.475 34.7436C146.155 35.2076 147.02 35.4396 148.073 35.4396ZM169.677 38.3853C167.83 38.3853 166.239 37.9669 164.905 37.13C163.579 36.2848 162.56 35.1206 161.847 33.6374C161.135 32.1542 160.778 30.4556 160.778 28.5415C160.778 26.6026 161.143 24.8916 161.872 23.4084C162.601 21.9169 163.629 20.7527 164.954 19.9158C166.28 19.079 167.842 18.6605 169.64 18.6605C171.09 18.6605 172.383 18.9298 173.518 19.4684C174.653 19.9987 175.569 20.7444 176.265 21.7056C176.969 22.6668 177.388 23.7895 177.52 25.0739H173.903C173.704 24.179 173.249 23.4084 172.536 22.7621C171.832 22.1158 170.887 21.7926 169.702 21.7926C168.667 21.7926 167.759 22.0661 166.98 22.6129C166.21 23.1515 165.609 23.9221 165.178 24.9247C164.747 25.919 164.532 27.0956 164.532 28.4545C164.532 29.8466 164.743 31.0481 165.166 32.0589C165.588 33.0698 166.185 33.8529 166.956 34.408C167.734 34.9632 168.65 35.2408 169.702 35.2408C170.407 35.2408 171.045 35.1123 171.616 34.8555C172.196 34.5903 172.681 34.2133 173.071 33.7244C173.468 33.2356 173.746 32.6473 173.903 31.9595H177.52C177.388 33.1941 176.986 34.2962 176.315 35.2656C175.643 36.2351 174.744 36.9974 173.617 37.5526C172.499 38.1077 171.186 38.3853 169.677 38.3853ZM184.912 31.5245L184.887 26.9879H185.534L193.14 18.9091H197.59L188.914 28.1065H188.33L184.912 31.5245ZM181.494 38V12.5455H185.211V38H181.494ZM193.55 38L186.714 28.9268L189.275 26.3292L198.112 38H193.55Z" fill="white"/>
</svg>
