<svg width="176" height="38" viewBox="0 0 176 38" fill="none" xmlns="http://www.w3.org/2000/svg">
<g clip-path="url(#clip0_29_3)">
<path d="M28.125 27.1667L25.75 29.5833C25.5833 29.75 25.5 29.9445 25.5 30.1667C25.5 30.3889 25.5833 30.5833 25.75 30.75C25.9167 30.9167 26.1111 31 26.3333 31C26.5556 31 26.75 30.9167 26.9167 30.75L30.1667 27.5C30.5 27.1667 30.6667 26.7778 30.6667 26.3333C30.6667 25.8889 30.5 25.5 30.1667 25.1667L26.9167 21.9167C26.75 21.75 26.5556 21.6667 26.3333 21.6667C26.1111 21.6667 25.9167 21.75 25.75 21.9167C25.5833 22.0833 25.5 22.2778 25.5 22.5C25.5 22.7222 25.5833 22.9167 25.75 23.0833L28.1667 25.5H22.1667C21.9444 25.5 21.75 25.5833 21.5833 25.75C21.4167 25.9167 21.3333 26.1111 21.3333 26.3333C21.3333 26.5556 21.4167 26.75 21.5833 26.9167C21.75 27.0833 21.9444 27.1667 22.1667 27.1667H28.125ZM26.3333 34.6667C24.0278 34.6667 22.0628 33.8539 20.4383 32.2283C18.8139 30.6028 18.0011 28.6378 18 26.3333C18 24.0278 18.8128 22.0628 20.4383 20.4383C22.0639 18.8139 24.0289 18.0011 26.3333 18C28.6389 18 30.6044 18.8128 32.23 20.4383C33.8556 22.0639 34.6678 24.0289 34.6667 26.3333C34.6667 28.6389 33.8539 30.6045 32.2283 32.23C30.6028 33.8556 28.6378 34.6678 26.3333 34.6667ZM18.1667 34.6667H14.875C14.4583 34.6667 14.0972 34.5278 13.7917 34.25C13.4861 33.9722 13.3056 33.625 13.25 33.2083L12.75 29.3333C12.3889 29.1945 12.0489 29.0278 11.73 28.8333C11.4111 28.6389 11.0983 28.4306 10.7917 28.2083L7.16667 29.7083C6.77778 29.875 6.38889 29.8961 6 29.7717C5.61111 29.6472 5.30556 29.4039 5.08333 29.0417L2 23.6667C1.77778 23.3056 1.70833 22.9167 1.79167 22.5C1.875 22.0833 2.08333 21.75 2.41667 21.5L5.54167 19.125C5.51389 18.9306 5.5 18.7433 5.5 18.5633V17.4383C5.5 17.2572 5.51389 17.0695 5.54167 16.875L2.41667 14.5C2.08333 14.25 1.875 13.9167 1.79167 13.5C1.70833 13.0833 1.77778 12.6945 2 12.3333L5.08333 6.95834C5.30556 6.59723 5.61111 6.35445 6 6.23001C6.38889 6.10557 6.77778 6.12612 7.16667 6.29168L10.7917 7.79168C11.0972 7.56945 11.4167 7.36112 11.75 7.16668C12.0833 6.97223 12.4167 6.80557 12.75 6.66668L13.25 2.79168C13.3056 2.37501 13.4861 2.02779 13.7917 1.75001C14.0972 1.47223 14.4583 1.33334 14.875 1.33334H21.125C21.5417 1.33334 21.9028 1.47223 22.2083 1.75001C22.5139 2.02779 22.6944 2.37501 22.75 2.79168L23.25 6.66668C23.6111 6.80557 23.9517 6.97223 24.2717 7.16668C24.5917 7.36112 24.9039 7.56945 25.2083 7.79168L28.8333 6.29168C29.2222 6.12501 29.6111 6.1039 30 6.22834C30.3889 6.35279 30.6944 6.59612 30.9167 6.95834L34 12.3333C34.2222 12.6945 34.2917 13.0833 34.2083 13.5C34.125 13.9167 33.9167 14.25 33.5833 14.5L31.6667 15.9583C31.0556 15.6528 30.4306 15.3956 29.7917 15.1867C29.1528 14.9778 28.4722 14.8322 27.75 14.75L30.375 12.75L28.75 9.91668L24.625 11.6667C24.0139 11.0278 23.34 10.4933 22.6033 10.0633C21.8667 9.63334 21.0683 9.30668 20.2083 9.08334L19.6667 4.66668H16.375L15.7917 9.08334C14.9306 9.30557 14.1322 9.63223 13.3967 10.0633C12.6611 10.4945 11.9872 11.015 11.375 11.625L7.25 9.91668L5.625 12.75L9.20833 15.4167C9.06944 15.8333 8.97222 16.25 8.91667 16.6667C8.86111 17.0833 8.83333 17.5278 8.83333 18C8.83333 18.4445 8.86111 18.875 8.91667 19.2917C8.97222 19.7083 9.06944 20.125 9.20833 20.5417L5.625 23.25L7.25 26.0833L11.375 24.3333C11.8472 24.8056 12.3544 25.2295 12.8967 25.605C13.4389 25.9806 14.0289 26.2928 14.6667 26.5417C14.6944 28.125 15.0211 29.6111 15.6467 31C16.2722 32.3889 17.1122 33.6111 18.1667 34.6667ZM15.125 23.0417C15.2917 22.4861 15.4933 21.9511 15.73 21.4367C15.9667 20.9222 16.2372 20.4295 16.5417 19.9583C16.2361 19.7361 16 19.4511 15.8333 19.1033C15.6667 18.7556 15.5833 18.3878 15.5833 18C15.5833 17.3056 15.8261 16.7156 16.3117 16.23C16.7972 15.7445 17.3878 15.5011 18.0833 15.5C18.4722 15.5 18.8472 15.5906 19.2083 15.7717C19.5694 15.9528 19.8611 16.1956 20.0833 16.5C20.5556 16.1945 21.0417 15.9233 21.5417 15.6867C22.0417 15.45 22.5694 15.2628 23.125 15.125C22.625 14.2361 21.9306 13.5206 21.0417 12.9783C20.1528 12.4361 19.1667 12.1656 18.0833 12.1667C16.4444 12.1667 15.0622 12.7361 13.9367 13.875C12.8111 15.0139 12.2489 16.3889 12.25 18C12.25 19.0556 12.5072 20.035 13.0217 20.9383C13.5361 21.8417 14.2372 22.5428 15.125 23.0417Z" fill="#FF0000"/>
</g>
<path d="M64.7528 19.2273C64.7528 21.6051 64.3235 23.66 63.4648 25.392C62.6062 27.1241 61.4283 28.4598 59.9311 29.3991C58.4339 30.3385 56.724 30.8082 54.8011 30.8082C52.8783 30.8082 51.1683 30.3385 49.6712 29.3991C48.174 28.4598 46.9961 27.1241 46.1374 25.392C45.2788 23.66 44.8494 21.6051 44.8494 19.2273C44.8494 16.8494 45.2788 14.7945 46.1374 13.0625C46.9961 11.3305 48.174 9.99479 49.6712 9.0554C51.1683 8.116 52.8783 7.64631 54.8011 7.64631C56.724 7.64631 58.4339 8.116 59.9311 9.0554C61.4283 9.99479 62.6062 11.3305 63.4648 13.0625C64.3235 14.7945 64.7528 16.8494 64.7528 19.2273ZM62.1108 19.2273C62.1108 17.2751 61.7842 15.6275 61.131 14.2844C60.4852 12.9414 59.6082 11.925 58.5 11.2351C57.3991 10.5452 56.1662 10.2003 54.8011 10.2003C53.4361 10.2003 52.1995 10.5452 51.0913 11.2351C49.9904 11.925 49.1134 12.9414 48.4602 14.2844C47.8144 15.6275 47.4915 17.2751 47.4915 19.2273C47.4915 21.1795 47.8144 22.8271 48.4602 24.1701C49.1134 25.5131 49.9904 26.5296 51.0913 27.2195C52.1995 27.9093 53.4361 28.2543 54.8011 28.2543C56.1662 28.2543 57.3991 27.9093 58.5 27.2195C59.6082 26.5296 60.4852 25.5131 61.131 24.1701C61.7842 22.8271 62.1108 21.1795 62.1108 19.2273ZM71.5891 20.3281V30.5H68.9911V13.5909H71.5011V16.233H71.7212C72.1175 15.3743 72.7193 14.6844 73.5266 14.1634C74.3339 13.6349 75.3761 13.3707 76.6531 13.3707C77.7979 13.3707 78.7997 13.6056 79.6584 14.0753C80.517 14.5376 81.1849 15.2422 81.6619 16.1889C82.139 17.1283 82.3775 18.3172 82.3775 19.7557V30.5H79.7795V19.9318C79.7795 18.6035 79.4345 17.5687 78.7447 16.8274C78.0548 16.0788 77.1081 15.7045 75.9045 15.7045C75.0752 15.7045 74.3339 15.8844 73.6808 16.244C73.0349 16.6036 72.5249 17.1283 72.1506 17.8182C71.7763 18.508 71.5891 19.3447 71.5891 20.3281ZM86.1121 10.8828V7.95454H103.561V10.8828H96.5262V30.5H93.1356V10.8828H86.1121ZM105.396 30.5V13.5909H108.578V16.277H108.754C109.062 15.3669 109.605 14.6514 110.383 14.1303C111.168 13.6019 112.056 13.3377 113.047 13.3377C113.253 13.3377 113.495 13.3451 113.774 13.3597C114.06 13.3744 114.284 13.3928 114.445 13.4148V16.5632C114.313 16.5265 114.078 16.4862 113.741 16.4421C113.403 16.3907 113.066 16.3651 112.728 16.3651C111.95 16.3651 111.257 16.5302 110.647 16.8604C110.046 17.1834 109.569 17.6347 109.216 18.2145C108.864 18.7869 108.688 19.4401 108.688 20.174V30.5H105.396ZM122.063 30.8743C120.992 30.8743 120.023 30.6761 119.157 30.2798C118.291 29.8762 117.605 29.2927 117.098 28.5295C116.599 27.7662 116.35 26.8305 116.35 25.7223C116.35 24.7682 116.533 23.983 116.9 23.3665C117.267 22.75 117.763 22.262 118.386 21.9023C119.01 21.5427 119.707 21.2712 120.478 21.0877C121.249 20.9042 122.034 20.7648 122.834 20.6694C123.847 20.552 124.669 20.4566 125.3 20.3832C125.931 20.3024 126.39 20.174 126.676 19.9979C126.962 19.8217 127.105 19.5355 127.105 19.1392V19.0621C127.105 18.1007 126.834 17.3558 126.29 16.8274C125.755 16.299 124.955 16.0348 123.891 16.0348C122.782 16.0348 121.909 16.2807 121.271 16.7724C120.639 17.2567 120.203 17.7962 119.961 18.3906L116.867 17.6861C117.234 16.6586 117.77 15.8293 118.474 15.1982C119.186 14.5597 120.005 14.0973 120.929 13.8111C121.854 13.5175 122.826 13.3707 123.847 13.3707C124.522 13.3707 125.237 13.4515 125.993 13.6129C126.757 13.767 127.468 14.0533 128.129 14.4716C128.797 14.8899 129.344 15.488 129.769 16.266C130.195 17.0366 130.408 18.0384 130.408 19.2713V30.5H127.193V28.1882H127.061C126.848 28.6139 126.529 29.0322 126.103 29.4432C125.678 29.8542 125.131 30.1954 124.463 30.467C123.795 30.7385 122.995 30.8743 122.063 30.8743ZM122.779 28.2322C123.689 28.2322 124.467 28.0524 125.113 27.6928C125.766 27.3332 126.261 26.8635 126.599 26.2837C126.944 25.6966 127.116 25.0691 127.116 24.4013V22.2216C126.999 22.339 126.771 22.4491 126.434 22.5518C126.103 22.6473 125.725 22.7317 125.3 22.805C124.874 22.8711 124.459 22.9335 124.056 22.9922C123.652 23.0436 123.315 23.0876 123.043 23.1243C122.404 23.205 121.821 23.3408 121.293 23.5316C120.772 23.7224 120.353 23.9976 120.038 24.3572C119.729 24.7095 119.575 25.1792 119.575 25.7663C119.575 26.581 119.876 27.1974 120.478 27.6158C121.08 28.0268 121.847 28.2322 122.779 28.2322ZM141.914 30.8413C140.278 30.8413 138.869 30.4706 137.687 29.7294C136.513 28.9808 135.61 27.9497 134.979 26.636C134.348 25.3223 134.032 23.8178 134.032 22.1225C134.032 20.4052 134.355 18.8897 135.001 17.576C135.647 16.255 136.557 15.2238 137.731 14.4826C138.905 13.7414 140.289 13.3707 141.881 13.3707C143.166 13.3707 144.311 13.6093 145.316 14.0863C146.321 14.556 147.132 15.2165 147.749 16.0678C148.373 16.9192 148.743 17.9136 148.861 19.0511H145.657C145.481 18.2585 145.077 17.576 144.446 17.0036C143.822 16.4311 142.986 16.1449 141.936 16.1449C141.019 16.1449 140.215 16.3871 139.525 16.8714C138.843 17.3485 138.311 18.031 137.929 18.919C137.548 19.7997 137.357 20.8419 137.357 22.0455C137.357 23.2784 137.544 24.3426 137.918 25.2379C138.293 26.1333 138.821 26.8268 139.503 27.3185C140.193 27.8103 141.004 28.0561 141.936 28.0561C142.56 28.0561 143.125 27.9424 143.632 27.7148C144.145 27.48 144.575 27.1461 144.92 26.7131C145.272 26.2801 145.518 25.759 145.657 25.1499H148.861C148.743 26.2434 148.387 27.2195 147.793 28.0781C147.198 28.9368 146.402 29.612 145.404 30.1037C144.413 30.5954 143.25 30.8413 141.914 30.8413ZM155.408 24.7646L155.386 20.7464H155.958L162.696 13.5909H166.637L158.953 21.7372H158.435L155.408 24.7646ZM152.381 30.5V7.95454H155.672V30.5H152.381ZM163.059 30.5L157.004 22.4638L159.272 20.163L167.099 30.5H163.059Z" fill="#424A59"/>
<defs>
<clipPath id="clip0_29_3">
<rect width="140" height="36.9543" fill="white" transform="translate(0 1.02286)"/>
</clipPath>
</defs>
</svg>
