<svg width="38" height="37" viewBox="0 0 38 37" fill="none" xmlns="http://www.w3.org/2000/svg">
<path d="M28.125 26.1667L25.75 28.5833C25.5833 28.75 25.5 28.9445 25.5 29.1667C25.5 29.3889 25.5833 29.5833 25.75 29.75C25.9167 29.9167 26.1111 30 26.3333 30C26.5556 30 26.75 29.9167 26.9167 29.75L30.1667 26.5C30.5 26.1667 30.6667 25.7778 30.6667 25.3333C30.6667 24.8889 30.5 24.5 30.1667 24.1667L26.9167 20.9167C26.75 20.75 26.5556 20.6667 26.3333 20.6667C26.1111 20.6667 25.9167 20.75 25.75 20.9167C25.5833 21.0833 25.5 21.2778 25.5 21.5C25.5 21.7222 25.5833 21.9167 25.75 22.0833L28.1667 24.5H22.1667C21.9444 24.5 21.75 24.5833 21.5833 24.75C21.4167 24.9167 21.3333 25.1111 21.3333 25.3333C21.3333 25.5556 21.4167 25.75 21.5833 25.9167C21.75 26.0833 21.9444 26.1667 22.1667 26.1667H28.125ZM26.3333 33.6667C24.0278 33.6667 22.0628 32.8539 20.4383 31.2283C18.8139 29.6028 18.0011 27.6378 18 25.3333C18 23.0278 18.8128 21.0628 20.4383 19.4383C22.0639 17.8139 24.0289 17.0011 26.3333 17C28.6389 17 30.6044 17.8128 32.23 19.4383C33.8556 21.0639 34.6678 23.0289 34.6667 25.3333C34.6667 27.6389 33.8539 29.6045 32.2283 31.23C30.6028 32.8556 28.6378 33.6678 26.3333 33.6667ZM18.1667 33.6667H14.875C14.4583 33.6667 14.0972 33.5278 13.7917 33.25C13.4861 32.9722 13.3056 32.625 13.25 32.2083L12.75 28.3333C12.3889 28.1945 12.0489 28.0278 11.73 27.8333C11.4111 27.6389 11.0983 27.4306 10.7917 27.2083L7.16667 28.7083C6.77778 28.875 6.38889 28.8961 6 28.7717C5.61111 28.6472 5.30556 28.4039 5.08333 28.0417L2 22.6667C1.77778 22.3056 1.70833 21.9167 1.79167 21.5C1.875 21.0833 2.08333 20.75 2.41667 20.5L5.54167 18.125C5.51389 17.9306 5.5 17.7433 5.5 17.5633V16.4383C5.5 16.2572 5.51389 16.0695 5.54167 15.875L2.41667 13.5C2.08333 13.25 1.875 12.9167 1.79167 12.5C1.70833 12.0833 1.77778 11.6945 2 11.3333L5.08333 5.95834C5.30556 5.59723 5.61111 5.35445 6 5.23001C6.38889 5.10557 6.77778 5.12612 7.16667 5.29168L10.7917 6.79168C11.0972 6.56945 11.4167 6.36112 11.75 6.16668C12.0833 5.97223 12.4167 5.80557 12.75 5.66668L13.25 1.79168C13.3056 1.37501 13.4861 1.02779 13.7917 0.75001C14.0972 0.472232 14.4583 0.333344 14.875 0.333344H21.125C21.5417 0.333344 21.9028 0.472232 22.2083 0.75001C22.5139 1.02779 22.6944 1.37501 22.75 1.79168L23.25 5.66668C23.6111 5.80557 23.9517 5.97223 24.2717 6.16668C24.5917 6.36112 24.9039 6.56945 25.2083 6.79168L28.8333 5.29168C29.2222 5.12501 29.6111 5.1039 30 5.22834C30.3889 5.35279 30.6944 5.59612 30.9167 5.95834L34 11.3333C34.2222 11.6945 34.2917 12.0833 34.2083 12.5C34.125 12.9167 33.9167 13.25 33.5833 13.5L31.6667 14.9583C31.0556 14.6528 30.4306 14.3956 29.7917 14.1867C29.1528 13.9778 28.4722 13.8322 27.75 13.75L30.375 11.75L28.75 8.91668L24.625 10.6667C24.0139 10.0278 23.34 9.49334 22.6033 9.06334C21.8667 8.63334 21.0683 8.30668 20.2083 8.08334L19.6667 3.66668H16.375L15.7917 8.08334C14.9306 8.30557 14.1322 8.63223 13.3967 9.06334C12.6611 9.49445 11.9872 10.015 11.375 10.625L7.25 8.91668L5.625 11.75L9.20833 14.4167C9.06944 14.8333 8.97222 15.25 8.91667 15.6667C8.86111 16.0833 8.83333 16.5278 8.83333 17C8.83333 17.4445 8.86111 17.875 8.91667 18.2917C8.97222 18.7083 9.06944 19.125 9.20833 19.5417L5.625 22.25L7.25 25.0833L11.375 23.3333C11.8472 23.8056 12.3544 24.2295 12.8967 24.605C13.4389 24.9806 14.0289 25.2928 14.6667 25.5417C14.6944 27.125 15.0211 28.6111 15.6467 30C16.2722 31.3889 17.1122 32.6111 18.1667 33.6667ZM15.125 22.0417C15.2917 21.4861 15.4933 20.9511 15.73 20.4367C15.9667 19.9222 16.2372 19.4295 16.5417 18.9583C16.2361 18.7361 16 18.4511 15.8333 18.1033C15.6667 17.7556 15.5833 17.3878 15.5833 17C15.5833 16.3056 15.8261 15.7156 16.3117 15.23C16.7972 14.7445 17.3878 14.5011 18.0833 14.5C18.4722 14.5 18.8472 14.5906 19.2083 14.7717C19.5694 14.9528 19.8611 15.1956 20.0833 15.5C20.5556 15.1945 21.0417 14.9233 21.5417 14.6867C22.0417 14.45 22.5694 14.2628 23.125 14.125C22.625 13.2361 21.9306 12.5206 21.0417 11.9783C20.1528 11.4361 19.1667 11.1656 18.0833 11.1667C16.4444 11.1667 15.0622 11.7361 13.9367 12.875C12.8111 14.0139 12.2489 15.3889 12.25 17C12.25 18.0556 12.5072 19.035 13.0217 19.9383C13.5361 20.8417 14.2372 21.5428 15.125 22.0417Z" fill="#FF0000"/>
</svg>
