<svg width="37" height="37" viewBox="0 0 37 37" fill="none" xmlns="http://www.w3.org/2000/svg">
<path d="M30.8425 10.6104C31.0298 10.3578 31.2888 10.0191 31.6015 9.6167C31.8974 9.23631 32.169 8.89043 32.4406 8.54667C32.5357 8.42631 32.624 8.31484 32.7032 8.21505C32.7507 8.15529 32.7846 8.11262 32.8024 8.09032C33.0894 7.72999 33.0667 7.21318 32.7492 6.87938L30.1123 4.1071C29.7723 3.74956 29.2111 3.72283 28.8385 4.04642C28.8166 4.06551 28.8166 4.06551 28.7161 4.15258C28.6183 4.23731 28.5092 4.33176 28.3914 4.43347C28.0549 4.72401 27.7168 5.01452 27.3993 5.2854C27.0088 5.61841 26.708 5.87224 26.4722 6.06765C25.1615 5.13801 23.5775 4.49134 21.7623 4.08937C21.7331 3.83858 21.6986 3.52132 21.6599 3.14997C21.6509 3.06351 21.6417 2.9745 21.6324 2.88314C21.5903 2.47193 21.5466 2.03096 21.5039 1.58993C21.4889 1.43553 21.4751 1.29217 21.4629 1.16354C21.4503 1.03136 21.4503 1.03136 21.4476 1.00234C21.4029 0.528314 21.0049 0.166077 20.5288 0.166077H16.7616C16.2976 0.166077 15.9057 0.510703 15.8464 0.97096C15.8427 0.999708 15.8427 0.999708 15.8258 1.1304C15.8092 1.25754 15.7908 1.39925 15.7708 1.55187C15.7136 1.98783 15.6557 2.42375 15.6005 2.8303C15.5899 2.90844 15.5899 2.90844 15.5793 2.9864C15.5233 3.39633 15.4743 3.74526 15.4342 4.01729C13.6409 4.35984 11.9732 5.03514 10.5512 6.01043C10.32 5.8296 10.0234 5.58817 9.67768 5.3005C9.28439 4.97232 8.95587 4.6941 8.63048 4.41581C8.51653 4.31836 8.41115 4.22789 8.31694 4.14675C8.26059 4.09821 8.22036 4.06346 8.1996 4.04548C7.83324 3.72824 7.2839 3.74845 6.94183 4.09176L4.30493 6.73825C3.98617 7.05818 3.94579 7.56181 4.20951 7.92844C4.22658 7.95217 4.22658 7.95217 4.30423 8.06029C4.37977 8.16554 4.46397 8.28299 4.55465 8.40969C4.81369 8.77158 5.0727 9.13488 5.31426 9.4757C5.62036 9.90777 5.85718 10.2451 6.03604 10.5041C5.00176 11.8855 4.26879 13.6849 4.03979 15.4652C3.98967 15.4696 3.93706 15.4741 3.88207 15.4788C3.60948 15.5016 3.28419 15.5257 2.91769 15.5506C2.50214 15.5789 2.05623 15.6067 1.61022 15.6329C1.45405 15.642 1.30905 15.6503 1.17898 15.6576C1.1011 15.6619 1.04539 15.665 1.01632 15.6666C0.526688 15.6929 0.143196 16.0977 0.143196 16.588V20.3684C0.143196 20.8409 0.500225 21.2371 0.970256 21.2862C0.999823 21.2893 1.05597 21.2952 1.13488 21.3036C1.26679 21.3178 1.41386 21.3338 1.57228 21.3514C2.02461 21.4016 2.47681 21.4542 2.89798 21.5065C3.1386 21.5364 3.36219 21.5654 3.56533 21.5932C3.77379 21.6217 3.95805 21.6485 4.1145 21.6733C4.35787 23.2409 5.04209 24.7331 6.16082 26.4137C5.96993 26.6694 5.70691 27.008 5.38969 27.408C5.06487 27.8167 4.78123 28.1691 4.49752 28.5185C4.39818 28.6409 4.30595 28.7541 4.22322 28.8554C4.17371 28.916 4.13827 28.9593 4.11984 28.9818C3.81372 29.3548 3.84672 29.9007 4.19555 30.2342L6.8321 32.7545C7.16523 33.073 7.68223 33.0968 8.04327 32.8104C8.06553 32.7928 8.10856 32.7587 8.16884 32.7111C8.26959 32.6316 8.38227 32.543 8.50409 32.4475C8.85197 32.1747 9.20309 31.9021 9.53485 31.6481C10.0315 31.2687 10.3781 31.0103 10.6358 30.8272C12.4915 31.9684 13.9308 32.614 15.4793 32.8552C15.4849 32.9087 15.4906 32.9652 15.4963 33.0246C15.5233 33.3023 15.5519 33.6366 15.5815 34.0148C15.6142 34.4321 15.6463 34.8801 15.6764 35.3282C15.6869 35.4851 15.6965 35.6308 15.7048 35.7614C15.7098 35.8396 15.7134 35.8956 15.7151 35.9247C15.7452 36.4113 16.1486 36.7906 16.6362 36.7906H20.2776C20.7507 36.7906 21.1472 36.4328 21.1956 35.9622C21.1986 35.9327 21.2044 35.8768 21.2128 35.7981C21.2267 35.6665 21.2425 35.5198 21.2599 35.3618C21.3095 34.9106 21.3617 34.4596 21.4139 34.0396C21.4478 33.7673 21.4806 33.5171 21.5119 33.294C21.5399 33.0946 21.5662 32.9195 21.5906 32.7725C23.3833 32.3715 25.04 31.6807 26.4849 30.7185C26.7293 30.9069 27.0487 31.1651 27.4233 31.4761C27.4711 31.5158 27.4711 31.5158 27.5188 31.5555C27.8412 31.8241 28.1818 32.1124 28.5188 32.4008C28.6368 32.5018 28.7459 32.5956 28.8434 32.6796C28.9017 32.7299 28.9431 32.7657 28.9648 32.7845C29.3376 33.108 29.8991 33.0808 30.2389 32.7227L32.75 30.0766C33.0827 29.7259 33.0885 29.178 32.7632 28.8204C32.7442 28.7995 32.708 28.7596 32.6571 28.7033C32.572 28.6091 32.4771 28.5037 32.3748 28.3897C32.0829 28.0639 31.791 27.7345 31.5192 27.4223C31.4756 27.3722 31.4756 27.3722 31.4321 27.3221C31.1354 26.9799 30.8867 26.6853 30.7007 26.4545C31.6868 25.0823 32.3659 23.53 32.7379 21.7626C32.8419 21.747 32.9595 21.7306 33.0895 21.7135C33.3503 21.6792 33.6554 21.643 33.9955 21.6056C34.4179 21.5591 34.8715 21.5131 35.3252 21.4697C35.4841 21.4545 35.6317 21.4407 35.764 21.4286C35.8431 21.4214 35.8994 21.4163 35.929 21.4137C36.4053 21.3716 36.7706 20.9727 36.7706 20.4945V16.4622C36.7706 15.9759 36.3932 15.5731 35.908 15.5414C35.8788 15.5395 35.8227 15.5358 35.7442 15.5305C35.6132 15.5216 35.4672 15.5115 35.3099 15.5004C34.8606 15.4687 34.4115 15.4351 33.9931 15.4012C33.6659 15.3746 33.3711 15.349 33.1168 15.3246C32.976 15.3111 32.849 15.2981 32.7374 15.2858C32.2624 13.4951 31.6791 12.0583 30.8425 10.6104ZM28.9001 31.4523L30.1742 31.3905C30.1512 31.3705 30.1085 31.3336 30.0488 31.2821C29.9496 31.1965 29.8387 31.1012 29.7188 30.9986C29.6474 30.9375 29.5759 30.8764 29.5044 30.8155L28.9001 31.4523ZM8.24923 5.39441L6.99146 5.44068C7.0139 5.46011 7.05486 5.49549 7.11249 5.54513C7.20827 5.62762 7.31527 5.71949 7.43092 5.81839C7.50215 5.87931 7.57353 5.94023 7.64486 6.00097L8.24923 5.39441ZM33.7935 19.7711C33.4415 19.8098 33.1241 19.8475 32.8491 19.8836C32.5238 19.9264 32.2616 19.9664 32.0651 20.0047C31.9393 20.0291 31.8358 20.0536 31.7452 20.0823C31.6672 20.1071 31.5962 20.1353 31.5211 20.1764C31.4488 20.216 31.3797 20.2638 31.3104 20.3301C31.1745 20.4599 31.0692 20.6296 31.0313 20.8547C30.7051 22.8087 29.9813 24.437 28.8513 25.8377C28.6522 26.0838 28.6163 26.3417 28.6557 26.5849C28.6717 26.6839 28.6989 26.7656 28.7343 26.8456C28.7705 26.9272 28.8139 27.0025 28.8684 27.0857C28.9422 27.1985 29.043 27.3344 29.173 27.499C29.3859 27.7687 29.6796 28.1182 30.0377 28.5312C30.0825 28.5828 30.0825 28.5828 30.1273 28.6343C30.3506 28.8907 30.5863 29.1576 30.8244 29.4245L29.5044 30.8155C29.2324 30.5839 28.9609 30.3547 28.7001 30.1375C28.6511 30.0967 28.6511 30.0967 28.6021 30.056C28.1773 29.7034 27.8181 29.4137 27.5421 29.2035C27.3748 29.0761 27.2373 28.9772 27.1248 28.9051C27.0439 28.8532 26.9714 28.8118 26.8948 28.7773C26.8208 28.744 26.7459 28.7178 26.6554 28.7004C26.4176 28.6546 26.169 28.6767 25.9126 28.866C24.4325 29.9603 22.6468 30.7093 20.6741 31.0765C20.439 31.1204 20.2702 31.234 20.1421 31.3778C20.0805 31.4469 20.0365 31.5146 19.9997 31.5855C19.9614 31.659 19.9345 31.7297 19.9101 31.8082C19.8805 31.9039 19.8539 32.0167 19.8265 32.1548C19.7828 32.3758 19.7355 32.672 19.6842 33.0377C19.6515 33.2711 19.6175 33.5305 19.5825 33.8118C19.5374 34.1744 19.4925 34.5581 19.4492 34.9451H17.5001C17.4748 34.5781 17.4484 34.2148 17.4215 33.8709C17.3911 33.482 17.3615 33.1368 17.3333 32.846C17.3048 32.5527 17.2779 32.318 17.252 32.144C17.2355 32.0333 17.219 31.9428 17.1991 31.8637C17.1813 31.7926 17.1608 31.7283 17.1289 31.6575C17.0893 31.5723 17.0893 31.5723 16.9889 31.4325C16.8183 31.2399 16.8183 31.2399 16.3388 31.0975C14.7467 30.9787 13.2959 30.3354 11.1409 28.9663C10.8732 28.7965 10.6459 28.7927 10.4169 28.8462C10.3396 28.8642 10.2752 28.8879 10.2106 28.9172C10.142 28.9483 10.0747 28.9856 9.99842 29.0322C9.88827 29.0996 9.75078 29.1923 9.58242 29.3117C9.30189 29.5106 8.93478 29.784 8.49978 30.1162C8.45627 30.1495 8.45627 30.1495 8.41282 30.1827C8.12691 30.4016 7.82776 30.6335 7.52866 30.8672L6.08674 29.4889C6.3215 29.1988 6.55401 28.9093 6.77396 28.6326C6.80481 28.5937 6.80482 28.5937 6.83566 28.5549C7.18116 28.1193 7.46586 27.7523 7.673 27.4731C7.79676 27.3063 7.89295 27.1708 7.96261 27.0636C8.01043 26.99 8.0486 26.9257 8.08084 26.8608C8.11181 26.7983 8.13727 26.7365 8.15797 26.6611C8.22728 26.4087 8.22996 26.1627 8.02367 25.8686C6.69758 23.9764 5.99419 22.4425 5.87787 20.8614C5.85706 20.5759 5.72844 20.3725 5.55851 20.2235C5.48448 20.1587 5.41315 20.1142 5.33803 20.0773C5.26422 20.0409 5.19364 20.0156 5.11403 19.9924C5.01688 19.9641 4.89987 19.938 4.75514 19.9107C4.52115 19.8665 4.20524 19.8179 3.81527 19.7646C3.60414 19.7357 3.37324 19.7058 3.1256 19.675C2.76192 19.6298 2.37695 19.5846 1.98878 19.5409V17.4592C2.34894 17.4375 2.70539 17.4149 3.04298 17.392C3.41827 17.3664 3.75263 17.3416 4.03595 17.3179C4.33273 17.2931 4.56992 17.2698 4.7444 17.2475C4.85326 17.2337 4.94144 17.2199 5.0168 17.2037C5.08325 17.1895 5.14274 17.1733 5.20851 17.1479C5.28855 17.1162 5.28855 17.1162 5.42988 17.0284C5.64197 16.8731 5.64197 16.8731 5.81649 16.3159C5.89953 14.4739 6.71474 12.476 7.86579 11.1772C8.24012 10.753 8.20591 10.61 8.01661 10.1804C7.99811 10.1384 7.97972 10.1034 7.95803 10.0654C7.93392 10.0232 7.90433 9.97548 7.86675 9.91737C7.80581 9.8231 7.71981 9.69541 7.60927 9.53457C7.41942 9.25832 7.15926 8.88736 6.84526 8.44414C6.61041 8.11278 6.38807 7.80068 6.16398 7.48725L7.64486 6.00097C7.90461 6.22215 8.16371 6.44092 8.41228 6.6484C8.45466 6.68375 8.45466 6.68375 8.4971 6.71908C8.90623 7.05958 9.25155 7.33961 9.51587 7.54315C9.67562 7.66616 9.80633 7.76173 9.91224 7.83153C9.9881 7.88152 10.0555 7.9215 10.1264 7.95547C10.1965 7.98901 10.2669 8.01592 10.3535 8.03554C10.6057 8.09273 10.8671 8.07682 11.1422 7.86286C12.5783 6.74822 14.3857 6.01572 16.3607 5.73333C16.8934 5.6567 16.9602 5.53695 17.1076 5.11208C17.122 5.07032 17.132 5.03388 17.1416 4.99354C17.1519 4.94965 17.1619 4.89947 17.173 4.83768C17.1908 4.73862 17.2126 4.60285 17.2386 4.43032C17.2836 4.13234 17.3409 3.72664 17.4079 3.23598C17.4186 3.15727 17.4186 3.15727 17.4293 3.07842C17.4756 2.73732 17.5238 2.37615 17.5718 2.01166H19.6906C19.726 2.37367 19.7617 2.73213 19.7964 3.07107C19.8059 3.16345 19.8151 3.2535 19.8243 3.34103C19.8732 3.81136 19.9158 4.19813 19.9504 4.4817C19.9705 4.64631 19.9879 4.77616 20.003 4.87235C20.0129 4.9348 20.0222 4.98629 20.0329 5.03334C20.0432 5.07885 20.0546 5.12062 20.0721 5.16912C20.1989 5.52007 20.3 5.68579 20.7809 5.77322C22.869 6.15875 24.5938 6.86866 25.8832 7.94067C26.3019 8.28827 26.5221 8.23624 26.8889 8.05834C26.939 8.03403 26.9795 8.00995 27.0222 7.98178C27.0674 7.95207 27.1159 7.9168 27.174 7.87242C27.2651 7.80283 27.3864 7.70561 27.5382 7.5808C27.7974 7.36781 28.1437 7.07614 28.5568 6.72392C28.8497 6.47395 29.1147 6.24657 29.3815 6.01667L30.8597 7.57072C30.63 7.86194 30.4024 8.15225 30.1874 8.42863C29.8147 8.90829 29.5424 9.26457 29.3436 9.53329C29.2262 9.692 29.1347 9.81978 29.0687 9.91811C29.0253 9.98266 28.9907 10.0377 28.9614 10.0907C28.9339 10.1405 28.9105 10.1886 28.8888 10.2472C28.7884 10.5176 28.759 10.7325 28.9666 11.0688C29.9611 12.6805 30.5816 14.2008 31.0925 16.3073C31.1584 16.5773 31.3021 16.7414 31.4766 16.8604C31.6009 16.9347 31.6009 16.9347 31.676 16.9651C31.7405 16.9904 31.8009 17.0076 31.8683 17.023C31.9496 17.0416 32.0461 17.058 32.1648 17.0748C32.3573 17.1019 32.6174 17.1308 32.9408 17.1618C33.2049 17.1871 33.5084 17.2135 33.8439 17.2407C34.19 17.2688 34.5557 17.2966 34.925 17.3232V19.6542C34.5387 19.6919 34.1556 19.7312 33.7935 19.7711Z" fill="#FF3B30"/>
<path d="M18.2366 9.40466C13.1493 9.40466 9.02644 13.5413 9.02644 18.6425C9.02644 23.7438 13.1493 27.8804 18.2366 27.8804C23.3236 27.8804 27.4464 23.7437 27.4464 18.6425C27.4464 13.5413 23.3236 9.40466 18.2366 9.40466ZM18.2366 11.2502C22.303 11.2502 25.6008 14.5592 25.6008 18.6425C25.6008 22.7258 22.303 26.0348 18.2366 26.0348C14.1699 26.0348 10.872 22.7259 10.872 18.6425C10.872 14.5592 14.1699 11.2502 18.2366 11.2502Z" fill="#FF3B30"/>
</svg>
